{"title":"K-Narias - De Canarias Para El Mundo (h264/mp4)","uid":7677317,"size":81693312,"categoryP":"video","categoryS":"music_videos","magnet":"?xt=urn:btih:2459df95a23d2d0d8dbd924fd8439b289bd96faa&amp;dn=K-Narias+-+De+Canarias+Para+El+Mundo+%28h264%2Fmp4%29&amp;tr=udp%3A%2F%2Ftracker.openbittorrent.com%3A80&amp;tr=udp%3A%2F%2Fopen.demonii.com%3A1337&amp;tr=udp%3A%2F%2Ftracker.coppersurfer.tk%3A6969&amp;tr=udp%3A%2F%2Fexodus.desync.com%3A6969","seeders":1,"leechers":0,"uploader":"MusicVideos-HQ","files":1,"time":1348728082,"description":"General\n\nFormat                         : MPEG-4\nFormat profile                 : Base Media\nCodec ID                       : isom\nFile size                      : 77.9 MiB\nDuration                       : 4mn 11s\nOverall bit rate mode          : Variable\nOverall bit rate               : 2 598 Kbps\nEncoded date                   : UTC 2012-09-25 02:36:52\nTagged date                    : UTC 2012-09-25 02:36:52\n\nVideo\nID                             : 1\nFormat                         : AVC\nFormat/Info                    : Advanced Video Codec\nFormat profile                 : &lt;a class=&quot;__cf_email__&quot; href=&quot;/cdn-cgi/l/email-protection&quot; data-cfemail=&quot;d39bbab4bb939fe0fde3&quot;&gt;[email&amp;#160;protected]&lt;/a&gt;&lt;script cf-hash='f9e31' type=&quot;text/javascript&quot;&gt;\n/* &lt;![CDATA[ */!function(){try{var t=&quot;currentScript&quot;in document?document.currentScript:function(){for(var t=document.getElementsByTagName(&quot;script&quot;),e=t.length;e--;)if(t[e].getAttribute(&quot;cf-hash&quot;))return t[e]}();if(t&amp;&amp;t.previousSibling){var e,r,n,i,c=t.previousSibling,a=c.getAttribute(&quot;data-cfemail&quot;);if(a){for(e=&quot;&quot;,r=parseInt(a.substr(0,2),16),n=2;a.length-n;n+=2)i=parseInt(a.substr(n,2),16)^r,e+=String.fromCharCode(i);e=document.createTextNode(e),c.parentNode.replaceChild(e,c)}}}catch(u){}}();/* ]]&gt; */&lt;/script&gt;\nFormat settings, CABAC         : Yes\nFormat settings, ReFrames      : 2 frames\nCodec ID                       : avc1\nCodec ID/Info                  : Advanced Video Coding\nDuration                       : 4mn 11s\nBit rate                       : 2 523 Kbps\nMaximum bit rate               : 6 345 Kbps\nWidth                          : 720 pixels\nHeight                         : 480 pixels\nDisplay aspect ratio           : 16:9\nOriginal display aspect ratio  : 16:9\nFrame rate mode                : Constant\nFrame rate                     : 25.000 fps\nStandard                       : NTSC\nColor space                    : YUV\nChroma subsampling             : 4:2:0\nBit depth                      : 8 bits\nScan type                      : Progressive\nBits/(Pixel*Frame)             : 0.292\nStream size                    : 75.7 MiB (97%)\n\n\nAudio\nID                             : 2\nFormat                         : AAC\nFormat/Info                    : Advanced Audio Codec\nFormat profile                 : LC\nCodec ID                       : 40\nDuration                       : 4mn 11s\nBit rate mode                  : Variable\nBit rate                       : 72.0 Kbps\nMaximum bit rate               : 83.9 Kbps\nChannel(s)                     : 2 channels\nChannel positions              : Front: L R\nSampling rate                  : 44.1 KHz\nCompression mode               : Lossy\nStream size                    : 2.12 MiB (3%)","torrent":{"xt":"urn:btih:2459df95a23d2d0d8dbd924fd8439b289bd96faa","amp;dn":"K-Narias+-+De+Canarias+Para+El+Mundo+%28h264%2Fmp4%29","amp;tr":["udp%3A%2F%2Ftracker.openbittorrent.com%3A80","udp%3A%2F%2Fopen.demonii.com%3A1337","udp%3A%2F%2Ftracker.coppersurfer.tk%3A6969","udp%3A%2F%2Fexodus.desync.com%3A6969"],"infoHash":"2459df95a23d2d0d8dbd924fd8439b289bd96faa","infoHashBuffer":{"type":"Buffer","data":[36,89,223,149,162,61,45,13,141,189,146,79,216,67,155,40,155,217,111,170]},"announce":[],"urlList":[]}}